<svg xmlns="http://www.w3.org/2000/svg" viewBox="0 0 128 128">
  <title>Developer emoji icon</title>
  <defs>
    <linearGradient id="bg" x1="20" x2="108" y1="14" y2="116" gradientUnits="userSpaceOnUse">
      <stop stop-color="#f7c873" />
      <stop offset="1" stop-color="#ec6f51" />
    </linearGradient>
    <linearGradient id="screen" x1="35" x2="93" y1="72" y2="111" gradientUnits="userSpaceOnUse">
      <stop stop-color="#28323f" />
      <stop offset="1" stop-color="#111827" />
    </linearGradient>
  </defs>
  <rect width="128" height="128" rx="26" fill="#fff7ed" />
  <circle cx="64" cy="62" r="46" fill="url(#bg)" />
  <path
    fill="#2f241e"
    d="M36 54c0-20 12-34 30-34 17 0 29 13 29 31v9H36v-6Z"
  />
  <path
    fill="#473126"
    d="M44 50c3-16 15-22 29-17 8 3 16 11 18 25H38c0-3 2-6 6-8Z"
  />
  <path
    fill="#f0b384"
    d="M42 58c0-15 10-27 24-27s24 12 24 27v8c0 16-10 28-24 28S42 82 42 66v-8Z"
  />
  <path
    fill="#e49d73"
    d="M42 60c8-2 16-8 20-17 5 9 15 14 28 16v-3c0-15-10-26-24-26S42 42 42 57v3Z"
  />
  <circle cx="53" cy="64" r="3" fill="#2f241e" />
  <circle cx="79" cy="64" r="3" fill="#2f241e" />
  <path
    fill="none"
    stroke="#6b3b2a"
    stroke-linecap="round"
    stroke-width="4"
    d="M57 78c5 4 13 4 18 0"
  />
  <path
    fill="#f0b384"
    d="M32 66c0-5 3-8 7-8h4v17h-4c-4 0-7-4-7-9Zm57-8h4c4 0 7 3 7 8s-3 9-7 9h-4V58Z"
  />
  <path
    fill="#1f8a70"
    d="M31 108c4-18 17-29 35-29 17 0 30 11 34 29H31Z"
  />
  <path
    fill="url(#screen)"
    d="M28 76h72a7 7 0 0 1 7 7v28H21V83a7 7 0 0 1 7-7Z"
  />
  <path
    fill="#3d4856"
    d="M18 109h92a5 5 0 0 1 5 5v4H13v-4a5 5 0 0 1 5-5Z"
  />
  <path
    fill="none"
    stroke="#83e6c0"
    stroke-linecap="round"
    stroke-linejoin="round"
    stroke-width="6"
    d="m50 91-8 8 8 8m28-16 8 8-8 8"
  />
  <path
    fill="none"
    stroke="#83e6c0"
    stroke-linecap="round"
    stroke-width="6"
    d="m70 89-12 20"
  />
</svg>
